<svg width="199" height="181" viewBox="0 0 199 181" fill="none" xmlns="http://www.w3.org/2000/svg">
<g clip-path="url(#clip0_29_46)">
<path d="M170.463 181C186.223 181 199 168.229 199 152.476C199 136.723 186.223 123.952 170.463 123.952C154.702 123.952 141.926 136.723 141.926 152.476C141.926 168.229 154.702 181 170.463 181Z" fill="black"/>
<path d="M158.417 101.657C150.19 99.2262 151.748 88.8003 151.748 82.3435C151.748 76.9881 144.377 72.2025 141.451 76.6463C132.559 90.1677 93.9522 96.9663 87.3974 90.4145C74.4208 77.4249 129.823 49.1288 94.7881 45.2737C90.7229 44.5765 86.946 42.7195 83.9122 39.9263C80.8785 37.1332 78.7172 33.523 77.6887 29.5305C70.3929 -4.15896 45.6936 -1.70917 30.3991 2.18392L1.89994 86.1416C0.387318 90.6013 -0.201757 95.322 0.168559 100.016C0.538875 104.711 1.86084 109.281 4.05402 113.448C6.2472 117.616 9.26575 121.294 12.926 124.259C16.5863 127.224 20.8117 129.413 25.3452 130.694L118.138 156.768C120.379 157.399 122.666 157.85 124.978 158.116C125.709 158.2 126.449 158.115 127.142 157.867C127.834 157.619 128.46 157.215 128.971 156.686C129.482 156.157 129.864 155.517 130.087 154.817C130.311 154.116 130.37 153.374 130.26 152.647C128.569 140.531 138.297 120.173 163.395 115.634C182.926 112.045 166.074 103.936 158.417 101.657ZM46.3586 76.5324L53.6544 58.4912C54.223 57.3286 55.2104 56.4238 56.4185 55.9584C57.6267 55.4931 58.9662 55.5016 60.1683 55.9822C61.3704 56.4628 62.3463 57.3801 62.9001 58.5499C63.4538 59.7196 63.5446 61.0555 63.1541 62.2894L55.8773 80.3305C55.3087 81.4932 54.3213 82.3979 53.1132 82.8633C51.9051 83.3287 50.5655 83.3202 49.3634 82.8395C48.1613 82.3589 47.1854 81.4417 46.6316 80.2719C46.0779 79.1021 45.9871 77.7663 46.3776 76.5324H46.3586ZM28.4991 67.6068L31.786 59.4977C32.3546 58.3351 33.342 57.4303 34.5502 56.9649C35.7583 56.4996 37.0978 56.5081 38.3 56.9887C39.5021 57.4693 40.4779 58.3866 41.0317 59.5564C41.5855 60.7262 41.6762 62.062 41.2858 63.2959L37.9989 71.4429C37.786 72.1154 37.4367 72.7368 36.9726 73.2682C36.5086 73.7996 35.9399 74.2296 35.302 74.5312C34.6641 74.8329 33.9708 74.9998 33.2655 75.0215C32.5601 75.0432 31.8579 74.9192 31.2027 74.6572C30.5475 74.3952 29.9534 74.001 29.4576 73.4991C28.9618 72.9971 28.5749 72.3984 28.3211 71.7402C28.0674 71.082 27.9522 70.3786 27.9829 69.6739C28.0135 68.9692 28.1892 68.2784 28.4991 67.6447V67.6068ZM71.1719 91.1552C61.5014 98.1241 49.9196 101.95 37.9989 102.113C28.8221 102.113 20.3674 99.4541 14.9905 93.3961C14.1541 92.4542 13.7262 91.2188 13.801 89.9616C13.8758 88.7044 14.4473 87.5285 15.3895 86.6924C16.3318 85.8563 17.5678 85.4286 18.8256 85.5034C20.0833 85.5782 21.2599 86.1493 22.0963 87.0912C29.7721 95.8269 51.2985 94.0608 65.491 83.5589C66.4988 82.8034 67.7656 82.479 69.0127 82.6571C70.2598 82.8352 71.385 83.5011 72.1408 84.5084C72.8967 85.5158 73.2212 86.782 73.0431 88.0285C72.8649 89.275 72.1986 90.3997 71.1909 91.1552H71.1719Z" fill="#020202"/>
</g>
<defs>
<clipPath id="clip0_29_46">
<rect width="199" height="181" fill="white"/>
</clipPath>
</defs>
</svg>
